<!--?xml version="1.0" standalone="no"?-->
              <svg id="sw-js-blob-svg" viewBox="0 0 100 100" xmlns="http://www.w3.org/2000/svg" version="1.1">
                    <defs> 
                        <linearGradient id="sw-gradient" x1="0" x2="1" y1="1" y2="0">
                            <stop id="stop1" stop-color="rgba(0, 65, 163, 1)" offset="0%"></stop>
                            <stop id="stop2" stop-color="rgba(0, 146, 204, 1)" offset="100%"></stop>
                        </linearGradient>
                    </defs>
                <path fill="url(#sw-gradient)" d="M18.2,-20.1C23.7,-17.2,28.2,-11.5,31.6,-3.8C34.9,3.8,37.2,13.3,34.1,20.7C31,28.1,22.6,33.4,13.2,37.2C3.8,41,-6.4,43.3,-14.3,40.1C-22.2,36.9,-27.8,28.1,-32.7,19.1C-37.5,10.2,-41.6,1.1,-38.6,-5.2C-35.5,-11.4,-25.4,-14.7,-17.7,-17.3C-10.1,-19.8,-5.1,-21.5,0.7,-22.3C6.4,-23.1,12.8,-23,18.2,-20.1Z" width="100%" height="100%" transform="translate(50 50)" stroke-width="0" style="transition: all 0.3s ease 0s;"></path>
              </svg>