<?xml version="1.0" standalone="no"?>
<svg xmlns:xlink="http://www.w3.org/1999/xlink" id="wave" style="transform:rotate(0deg); transition: 0.3s" viewBox="0 0 1440 490" version="1.1" xmlns="http://www.w3.org/2000/svg"><defs><linearGradient id="sw-gradient-0" x1="0" x2="0" y1="1" y2="0"><stop stop-color="rgba(2, 65, 163, 1)" offset="0%"/><stop stop-color="rgba(0, 146, 204, 1)" offset="100%"/></linearGradient></defs><path style="transform:translate(0, 0px); opacity:1" fill="url(#sw-gradient-0)" d="M0,49L60,40.8C120,33,240,16,360,65.3C480,114,600,229,720,294C840,359,960,376,1080,383.8C1200,392,1320,392,1440,400.2C1560,408,1680,425,1800,383.8C1920,343,2040,245,2160,179.7C2280,114,2400,82,2520,98C2640,114,2760,180,2880,245C3000,310,3120,376,3240,408.3C3360,441,3480,441,3600,441C3720,441,3840,441,3960,400.2C4080,359,4200,278,4320,228.7C4440,180,4560,163,4680,187.8C4800,212,4920,278,5040,269.5C5160,261,5280,180,5400,155.2C5520,131,5640,163,5760,147C5880,131,6000,65,6120,49C6240,33,6360,65,6480,98C6600,131,6720,163,6840,212.3C6960,261,7080,327,7200,294C7320,261,7440,131,7560,138.8C7680,147,7800,294,7920,367.5C8040,441,8160,441,8280,408.3C8400,376,8520,310,8580,277.7L8640,245L8640,490L8580,490C8520,490,8400,490,8280,490C8160,490,8040,490,7920,490C7800,490,7680,490,7560,490C7440,490,7320,490,7200,490C7080,490,6960,490,6840,490C6720,490,6600,490,6480,490C6360,490,6240,490,6120,490C6000,490,5880,490,5760,490C5640,490,5520,490,5400,490C5280,490,5160,490,5040,490C4920,490,4800,490,4680,490C4560,490,4440,490,4320,490C4200,490,4080,490,3960,490C3840,490,3720,490,3600,490C3480,490,3360,490,3240,490C3120,490,3000,490,2880,490C2760,490,2640,490,2520,490C2400,490,2280,490,2160,490C2040,490,1920,490,1800,490C1680,490,1560,490,1440,490C1320,490,1200,490,1080,490C960,490,840,490,720,490C600,490,480,490,360,490C240,490,120,490,60,490L0,490Z"/></svg>